<svg width="44" height="45" viewBox="0 0 44 45" fill="none" xmlns="http://www.w3.org/2000/svg">
<g filter="url(#filter0_b_10_4610)">
<rect y="0.820312" width="44" height="44" rx="22" fill="#ECEEF4" fill-opacity="0.5"/>
<mask id="mask0_10_4610" style="mask-type:alpha" maskUnits="userSpaceOnUse" x="6" y="6" width="32" height="33">
<rect x="6" y="6.82031" width="32" height="32" fill="#D9D9D9"/>
</mask>
<g mask="url(#mask0_10_4610)">
<path d="M23.9782 22.7981L18.3115 17.1314C18.0967 16.9166 17.993 16.6574 18.0004 16.3537C18.0078 16.05 18.1189 15.7907 18.3337 15.5759C18.5485 15.3611 18.8115 15.2537 19.1226 15.2537C19.4337 15.2537 19.6967 15.3611 19.9115 15.5759L26.3559 22.0203C26.4744 22.1388 26.5578 22.2611 26.6059 22.387C26.6541 22.5129 26.6781 22.65 26.6781 22.7981C26.6781 22.9463 26.6541 23.0833 26.6059 23.2092C26.5578 23.3351 26.4744 23.4574 26.3559 23.5759L19.8893 30.0426C19.6744 30.2574 19.4152 30.3611 19.1115 30.3537C18.8078 30.3463 18.5485 30.2352 18.3337 30.0203C18.1189 29.8055 18.0115 29.5426 18.0115 29.2315C18.0115 28.9204 18.1189 28.6574 18.3337 28.4426L23.9782 22.7981Z" fill="#41558D"/>
</g>
</g>
<defs>
<filter id="filter0_b_10_4610" x="-16" y="-15.1797" width="76" height="76" filterUnits="userSpaceOnUse" color-interpolation-filters="sRGB">
<feFlood flood-opacity="0" result="BackgroundImageFix"/>
<feGaussianBlur in="BackgroundImageFix" stdDeviation="8"/>
<feComposite in2="SourceAlpha" operator="in" result="effect1_backgroundBlur_10_4610"/>
<feBlend mode="normal" in="SourceGraphic" in2="effect1_backgroundBlur_10_4610" result="shape"/>
</filter>
</defs>
</svg>
