<svg width="48" height="48" viewBox="0 0 48 48" fill="none" xmlns="http://www.w3.org/2000/svg">
<path d="M24 48C10.7755 48 0 37.2245 0 24C0 10.7755 10.7755 0 24 0C37.2245 0 48 10.7755 48 24C48 37.2245 37.2503 48 24 48Z" fill="#445689"/>
<path d="M16.2406 29.6976C16.2406 29.646 16.2148 29.5945 16.2148 29.5429C16.2148 26.9651 16.189 24.3872 16.2148 21.8093C16.2406 19.2314 17.3491 17.1691 19.4114 15.6482C20.9066 14.5397 22.608 14.0757 24.464 14.1788C27.6606 14.3592 30.4447 16.5504 31.4243 19.6181C31.6563 20.3915 31.7852 21.1906 31.7852 21.9898C31.7852 24.4903 31.7852 26.9908 31.7852 29.4914C31.7852 29.5687 31.7852 29.6203 31.7852 29.7234C26.6037 29.6976 21.4479 29.6976 16.2406 29.6976ZM28.3824 21.732C28.3566 21.732 28.3566 21.7062 28.3308 21.7062C28.3051 21.5257 28.2793 21.3711 28.2535 21.1906C27.9442 19.1541 26.1139 17.5816 24.0516 17.5816C23.536 17.5816 23.1493 17.9425 23.1235 18.4323C23.1235 18.8963 23.4587 19.2314 23.9742 19.3088C24.3609 19.3603 24.7734 19.4119 25.1085 19.5923C26.0623 20.0563 26.5263 20.8555 26.5779 21.9124C26.6037 22.3249 26.8357 22.6342 27.2223 22.7631C27.5575 22.8662 27.9442 22.7373 28.1246 22.428C28.2793 22.2218 28.3051 21.964 28.3824 21.732Z" fill="#D7EFA3"/>
<path d="M24 35.4717C21.1644 35.4717 18.3287 35.4717 15.4931 35.4717C14.797 35.4717 14.4619 35.1366 14.4619 34.4405C14.4619 33.7703 14.4619 33.1 14.4619 32.4556C14.4619 31.7853 14.797 31.4502 15.4931 31.4502C21.1644 31.4502 26.8099 31.4502 32.4813 31.4502C33.1773 31.4502 33.5124 31.7853 33.5124 32.4813C33.5124 33.1258 33.5124 33.7961 33.5124 34.4405C33.5124 35.1366 33.1773 35.4717 32.4813 35.4717C29.6714 35.4717 26.8357 35.4717 24 35.4717Z" fill="#7B99D0"/>
<path d="M24.8765 10.6472C24.8765 10.9308 24.8765 11.2144 24.8765 11.498C24.8507 11.9877 24.5671 12.2971 24.1289 12.3744C23.768 12.426 23.3813 12.2198 23.2266 11.8589C23.1751 11.73 23.1493 11.6011 23.1493 11.4464C23.1493 10.905 23.1493 10.3637 23.1493 9.82233C23.1493 9.38409 23.3813 9.07475 23.768 8.94586C24.1289 8.84274 24.4898 8.92007 24.696 9.2552C24.7991 9.43565 24.8507 9.64188 24.8765 9.84811C24.9022 10.1317 24.8765 10.3895 24.8765 10.6472Z" fill="#7B99D0"/>
<path d="M16.6273 15.4677C16.4211 15.3646 16.1891 15.2873 16.0344 15.1326C15.6219 14.7459 15.2353 14.3592 14.8486 13.9468C14.4877 13.5601 14.4877 13.0445 14.8228 12.7094C15.1579 12.3743 15.6735 12.3743 16.0602 12.7352C16.4726 13.1476 16.8851 13.5601 17.2975 13.9726C17.5553 14.2303 17.6069 14.5655 17.4522 14.9006C17.2975 15.2357 17.0398 15.4162 16.6273 15.4677Z" fill="#7B99D0"/>
<path d="M31.3727 15.4678C31.0118 15.4163 30.754 15.2616 30.5994 14.9781C30.4447 14.6687 30.4447 14.3336 30.6767 14.0758C31.115 13.586 31.6048 13.122 32.0945 12.658C32.4297 12.3744 32.9195 12.426 33.2288 12.7353C33.5381 13.0446 33.5897 13.5344 33.2804 13.8696C32.8421 14.3594 32.3781 14.7976 31.9141 15.2358C31.7336 15.3647 31.5274 15.3905 31.3727 15.4678Z" fill="#7B99D0"/>
<path d="M12.7347 22.7636C12.4511 22.7636 12.1676 22.7636 11.884 22.7636C11.3942 22.7636 11.0333 22.377 11.0333 21.913C11.0333 21.4232 11.3942 21.0623 11.884 21.0623C12.4769 21.0623 13.0698 21.0623 13.637 21.0623C14.1268 21.0623 14.4877 21.4489 14.4619 21.9387C14.4619 22.4285 14.101 22.7894 13.6112 22.7894C13.3276 22.7636 13.0441 22.7636 12.7347 22.7636Z" fill="#7B99D0"/>
<path d="M35.2654 21.0622C35.5747 21.0622 35.8583 21.0622 36.1676 21.0622C36.6316 21.088 36.9925 21.4489 36.9925 21.9129C36.9925 22.377 36.6316 22.7636 36.1676 22.7636C35.5747 22.7636 34.9818 22.7636 34.3889 22.7636C33.9249 22.7636 33.564 22.377 33.564 21.9129C33.564 21.4489 33.8991 21.0622 34.3889 21.0622C34.6467 21.0365 34.956 21.0622 35.2654 21.0622Z" fill="#7B99D0"/>
</svg>
