<svg width="120" height="91" viewBox="0 0 120 91" fill="none" xmlns="http://www.w3.org/2000/svg">
<path d="M47.3583 107.075L30.7939 45.2562C30.2173 43.1043 30.4793 41.0771 31.58 39.1746C32.6807 37.2722 34.3043 36.0334 36.4508 35.4583L98.27 18.8939C100.395 18.3245 102.417 18.5937 104.336 19.7015C106.255 20.8093 107.499 22.4257 108.068 24.5507L118.938 65.1196C119.225 66.188 119.283 67.2639 119.113 68.3473C118.943 69.4307 118.607 70.4078 118.104 71.2787L102.642 98.0598C102.139 98.9308 101.461 99.7106 100.608 100.399C99.7545 101.088 98.7936 101.576 97.7252 101.862L57.1563 112.732C55.0313 113.302 53.0094 113.033 51.0906 111.925C49.1718 110.817 47.9277 109.201 47.3583 107.075ZM1.54121 38.6006C0.536759 36.5691 0.432707 34.5495 1.22906 32.5416C2.02541 30.5338 3.43932 29.0276 5.47079 28.0231L63.4897 0.88192C65.5212 -0.122534 67.5351 -0.248049 69.5315 0.505371C71.5278 1.25879 73.0282 2.65124 74.0327 4.68271L79.1992 15.7217L34.509 27.6964C30.1301 28.8697 26.8436 31.3722 24.6495 35.204C22.4554 39.0358 21.9277 43.0767 23.0665 47.3268L37.4568 101.032C35.6936 101.321 34.0185 101.079 32.4316 100.308C30.8446 99.5372 29.6378 98.2961 28.8112 96.5851L1.54121 38.6006ZM74.8847 70.7121L77.9906 82.3032C78.2839 83.3979 78.9022 84.2158 79.8454 84.7567C80.7888 85.2977 81.811 85.4206 82.9121 85.1256C84.0132 84.8305 84.8295 84.215 85.3609 83.2789C85.8923 82.3428 86.0113 81.3274 85.718 80.2326L82.6121 68.6415L94.2032 65.5357C95.298 65.2424 96.1158 64.6241 96.6568 63.6808C97.1977 62.7375 97.3207 61.7153 97.0256 60.6142C96.7306 59.513 96.115 58.6968 95.1789 58.1654C94.2428 57.634 93.2274 57.515 92.1327 57.8083L80.5416 60.9141L77.4358 49.323C77.1424 48.2283 76.5241 47.4105 75.5809 46.8695C74.6375 46.3286 73.6153 46.2056 72.5142 46.5006C71.4131 46.7957 70.5968 47.4113 70.0654 48.3474C69.534 49.2835 69.415 50.2989 69.7083 51.3936L72.8142 62.9847L61.2231 66.0905C60.1283 66.3838 59.3105 67.0021 58.7695 67.9454C58.2286 68.8888 58.1056 69.911 58.4007 71.012C58.6957 72.1132 59.3113 72.9295 60.2474 73.4608C61.1835 73.9922 62.1989 74.1112 63.2936 73.8179L74.8847 70.7121Z" fill="#ECEEF4"/>
</svg>
