<svg width="48" height="48" viewBox="0 0 48 48" fill="none" xmlns="http://www.w3.org/2000/svg">
<path d="M24 48C10.7755 48 0 37.2245 0 24C0 10.7755 10.7755 0 24 0C37.2245 0 48 10.7755 48 24C48 37.2245 37.2245 48 24 48Z" fill="#445689"/>
<path d="M24.0129 24.9273C24.6539 25.3913 25.2415 25.8037 25.829 26.242C26.1228 26.4482 26.4166 26.6802 26.7104 26.8864C27.3781 27.402 28.1793 27.5567 29.0073 27.634C29.034 27.634 29.0607 27.634 29.1408 27.6598C29.1408 27.7629 29.1408 27.8918 29.1408 27.9949C29.1408 31.1399 29.1408 34.3107 29.1408 37.4557C29.1408 37.8939 29.2477 38.2549 29.5949 38.5384C29.9955 38.8478 30.4495 38.9509 30.9303 38.7446C31.411 38.5384 31.6514 38.1517 31.7048 37.6619C31.7048 37.5588 31.7048 37.4557 31.7048 37.3784C31.7048 34.2076 31.7048 31.0368 31.7048 27.866C31.7048 27.6856 31.7582 27.5567 31.9185 27.4536C33.4141 26.4998 33.3073 24.3601 31.7048 23.5352C30.5564 22.9423 29.4079 22.4009 28.2595 21.8596C27.9123 21.6791 27.6452 21.4471 27.4315 21.1378C26.9775 20.4417 26.5234 19.7457 25.8557 19.2044C24.7874 18.3279 23.5588 17.8381 22.17 17.7865C21.3955 17.7608 20.6209 17.7608 19.8731 17.8639C18.7514 18.0185 18.0303 18.7661 17.3626 19.5911C16.4278 20.7769 15.9203 22.1431 15.5998 23.5868C15.1725 25.3913 15.0122 27.2473 15.0389 29.1034C15.0389 30.4697 15.493 31.7071 16.2675 32.8413C16.8017 33.6147 17.2824 34.388 17.416 35.3419C17.4694 35.677 17.4961 35.9863 17.4961 36.3214C17.5228 36.8886 17.4961 37.4557 17.4961 37.9971C17.4961 38.4869 17.8967 38.8993 18.4042 38.8993C19.8464 38.8993 21.3154 38.8993 22.7576 38.8993C23.452 38.8993 23.9862 38.3322 23.9862 37.6104C23.9862 33.5116 23.9862 29.4128 23.9862 25.3139C24.0129 25.185 24.0129 25.0819 24.0129 24.9273Z" fill="#D7EFA3"/>
<path d="M29.141 27.7874C29.141 27.8132 31.7317 27.8132 31.7317 27.7358C31.7317 27.7874 31.705 27.839 31.705 27.8905C31.705 31.0613 31.705 34.2321 31.705 37.4029C31.705 37.506 31.705 37.6091 31.705 37.6864C31.6516 38.1762 31.4112 38.5629 30.9304 38.7691C30.4497 38.9754 29.9957 38.898 29.595 38.5629C29.2478 38.2793 29.141 37.8927 29.141 37.4802C29.141 34.3352 29.141 31.1644 29.141 28.0194C29.141 27.9421 29.141 27.8647 29.141 27.7874Z" fill="#7B99D0"/>
<path d="M18.8583 12.8365C18.8583 14.9246 20.5943 16.5487 22.7577 16.5487C24.8409 16.5487 26.5769 14.8473 26.5502 12.8108C26.5502 10.7485 24.8142 9.09863 22.6508 9.09863C20.5943 9.12441 18.8583 10.8 18.8583 12.8365Z" fill="#D7EFA3"/>
</svg>
