<svg width="48" height="48" viewBox="0 0 48 48" fill="none" xmlns="http://www.w3.org/2000/svg">
<path d="M24 48C10.7755 48 0 37.2245 0 24C0 10.7755 10.7755 0 24 0C37.2245 0 48 10.7755 48 24C48 37.2245 37.2245 48 24 48Z" fill="#445689"/>
<path d="M36.4769 21.3968C34.6724 19.5665 32.4554 18.8189 29.9549 18.7931C30.0064 18.8447 30.0838 18.8963 30.1353 18.922C30.986 19.4376 31.811 20.0048 32.4554 20.7781C33.5381 22.0671 33.8732 23.5107 33.2803 25.1089C32.8163 26.4237 31.9398 27.4548 30.8829 28.4344C30.8571 28.0735 30.8314 27.7642 30.7798 27.4806C30.522 25.341 29.8776 23.356 28.4597 21.6804C27.9184 21.0359 27.2481 20.5203 26.5263 20.0821C25.753 19.6181 24.9023 19.6439 24.0773 19.7727C21.8088 20.1079 20.0301 21.3452 18.5607 23.0209C18.0967 23.5622 17.6584 24.1293 17.1944 24.748C17.0913 24.3614 16.9882 24.0005 16.9108 23.6138C16.6788 22.6084 16.6015 21.5773 16.8335 20.5719C17.2202 18.7931 18.3287 17.7104 20.0301 17.2722C20.9323 17.0402 21.8861 16.9629 22.7884 16.8082C21.8088 16.2411 20.7003 15.8544 19.5145 15.6739C18.3287 15.4677 17.1429 15.545 15.957 15.8802C15.9828 15.777 16.0086 15.6997 16.0344 15.6481C16.9108 13.5601 18.9731 12.4258 21.2159 12.864C21.9119 12.9929 22.6079 13.2249 23.3297 13.4312C23.3297 13.3796 23.3298 13.2765 23.304 13.1734C23.0204 12.168 22.3502 11.4462 21.6284 10.7502C21.4221 10.544 21.1901 10.3635 20.9323 10.1573C21.4737 9.97682 21.9893 9.92527 22.5306 9.95105C24.1289 10.0284 25.3663 10.776 26.2685 12.0391C26.7325 12.6836 27.0934 13.3796 27.5059 14.0756C27.8668 13.8436 28.2535 13.5601 28.6659 13.3281C29.7744 12.7094 30.9345 12.3227 32.1976 12.4774C33.3061 12.6063 34.2599 13.0961 35.0333 13.8952C34.3631 14.0756 33.667 14.2303 33.0225 14.4365C32.3523 14.6686 31.7594 15.0037 31.2954 15.5708C31.811 15.6739 32.275 15.7513 32.7648 15.8802C34.1053 16.2411 35.2653 16.8855 35.9871 18.1229C36.5027 19.1541 36.6574 20.211 36.4769 21.3968Z" fill="#D7EFA3"/>
<path d="M25.7787 21.3451C23.536 24.8768 22.1955 28.6663 21.6541 32.7909C22.1439 32.894 22.608 32.9971 23.0462 33.126C24 33.4095 24.8507 33.8478 25.4436 34.6985C25.8045 35.2141 26.0107 35.8843 25.9592 36.503C21.8346 36.503 17.71 36.503 13.5081 36.503C13.5854 36.1163 13.637 35.7296 13.7658 35.3429C14.0236 34.5696 14.5908 34.0282 15.2868 33.6158C16.2406 33.0744 17.2717 32.8682 18.3287 32.7651C18.5865 32.7393 18.6638 32.6362 18.7154 32.4042C19.4887 28.6147 21.0097 25.1346 23.1235 21.8865C23.3555 21.5255 23.6133 21.2935 24.0516 21.2678C24.4898 21.242 24.928 21.1904 25.3663 21.1904C25.4952 21.2162 25.6241 21.2935 25.7787 21.3451Z" fill="#7B99D0"/>
</svg>
