<svg width="48" height="48" viewBox="0 0 48 48" fill="none" xmlns="http://www.w3.org/2000/svg">
<path d="M24 48C10.7755 48 0 37.2245 0 24C0 10.7755 10.7755 0 24 0C37.2245 0 48 10.7755 48 24C48 37.2245 37.2245 48 24 48Z" fill="#445689"/>
<path d="M22.5306 20.3909C22.1181 20.8549 21.6799 21.3447 21.2416 21.8345C20.9581 22.1696 20.7261 22.5305 20.4683 22.8656C20.4167 22.943 20.2878 22.9945 20.2105 22.9945C17.4006 22.6852 14.8227 24.5413 14.2556 27.2738C13.6627 30.1868 15.493 33.0482 18.3802 33.7443C21.2416 34.4145 24.232 32.5584 24.8764 29.6712C25.0053 29.0525 25.0053 28.4081 25.1084 27.7894C25.3147 26.4489 26.0623 25.4951 27.2739 24.8764C27.2996 24.8506 27.3254 24.8506 27.377 24.8506C28.769 27.5832 28.537 31.9655 25.2631 34.8528C21.9377 37.7915 17.0913 37.7142 13.8174 34.6981C10.6724 31.8109 10.131 26.9645 12.58 23.5101C15.1321 19.8753 19.6176 19.1535 22.5306 20.3909Z" fill="#D7EFA3"/>
<path d="M25.8045 36.4252C25.9334 36.3221 26.0623 36.219 26.1912 36.1159C26.8872 35.5229 27.4801 34.8269 27.9957 34.0536C28.073 33.9247 28.1504 33.8473 28.3308 33.8731C30.0838 34.0536 31.6047 33.5122 32.8163 32.2491C34.2599 30.7281 34.7497 28.9236 34.1568 26.8871C33.5639 24.8763 32.1719 23.6132 30.1353 23.0976C27.1966 22.3758 24.1031 24.4123 23.6133 27.3769C23.5102 27.9182 23.536 28.4596 23.4586 29.0009C23.2524 30.393 22.479 31.3726 21.2159 32.017C20.0043 29.7485 19.8496 25.5724 22.7368 22.5305C25.7272 19.3855 30.6767 18.973 34.1053 21.5767C37.6369 24.2576 38.5908 29.0267 36.3222 32.7904C34.0021 36.6057 29.4651 37.8946 25.8045 36.4252Z" fill="#D7EFA3"/>
<path d="M24.2835 19.5915C23.6906 18.9986 23.0976 18.4315 22.5047 17.8644C21.7056 17.0652 20.9065 16.2661 20.1331 15.4412C18.5348 13.7655 19.3339 11.0845 21.5767 10.5432C22.5047 10.337 23.3296 10.5432 24.0772 11.1361C24.2061 11.2392 24.2835 11.265 24.4381 11.1361C25.3404 10.4143 26.3458 10.2596 27.4027 10.6979C28.4338 11.1103 29.0525 11.9352 29.1814 13.0437C29.3103 13.9718 29.0268 14.7967 28.3823 15.4412C27.0676 16.7816 25.7529 18.1221 24.4124 19.4626C24.3608 19.5142 24.3092 19.5658 24.2835 19.5915Z" fill="#7B99D0"/>
</svg>
