<svg width="24" height="24" viewBox="0 0 24 24" fill="none" xmlns="http://www.w3.org/2000/svg">
<mask id="mask0_10_2862" style="mask-type:alpha" maskUnits="userSpaceOnUse" x="0" y="0" width="24" height="24">
<rect width="24" height="24" fill="#D9D9D9"/>
</mask>
<g mask="url(#mask0_10_2862)">
<path d="M6.02308 17.2921C6.87308 16.6613 7.79903 16.1632 8.80095 15.7978C9.80287 15.4324 10.8692 15.2498 12 15.2498C13.1307 15.2498 14.1971 15.4324 15.199 15.7978C16.2009 16.1632 17.1269 16.6613 17.9769 17.2921C18.5987 16.6087 19.0913 15.8177 19.4548 14.919C19.8182 14.0202 20 13.0472 20 11.9997C20 9.78307 19.2208 7.89557 17.6625 6.33723C16.1041 4.7789 14.2166 3.99973 12 3.99973C9.78331 3.99973 7.89581 4.7789 6.33748 6.33723C4.77914 7.89557 3.99998 9.78307 3.99998 11.9997C3.99998 13.0472 4.18171 14.0202 4.54518 14.919C4.90864 15.8177 5.40128 16.6087 6.02308 17.2921ZM12 12.7497C11.0872 12.7497 10.3173 12.4362 9.69038 11.8093C9.06346 11.1824 8.75 10.4125 8.75 9.49973C8.75 8.58692 9.06346 7.81705 9.69038 7.19013C10.3173 6.56322 11.0872 6.24976 12 6.24976C12.9128 6.24976 13.6827 6.56322 14.3096 7.19013C14.9365 7.81705 15.25 8.58692 15.25 9.49973C15.25 10.4125 14.9365 11.1824 14.3096 11.8093C13.6827 12.4362 12.9128 12.7497 12 12.7497ZM12 21.4997C10.6807 21.4997 9.44325 21.2516 8.2875 20.7555C7.13173 20.2593 6.12628 19.5837 5.27115 18.7286C4.41603 17.8734 3.7404 16.868 3.24425 15.7122C2.74808 14.5565 2.5 13.319 2.5 11.9997C2.5 10.6805 2.74808 9.44301 3.24425 8.28726C3.7404 7.13149 4.41603 6.12604 5.27115 5.27091C6.12628 4.41579 7.13173 3.74016 8.2875 3.24401C9.44325 2.74784 10.6807 2.49976 12 2.49976C13.3192 2.49976 14.5567 2.74784 15.7125 3.24401C16.8682 3.74016 17.8737 4.41579 18.7288 5.27091C19.5839 6.12604 20.2596 7.13149 20.7557 8.28726C21.2519 9.44301 21.5 10.6805 21.5 11.9997C21.5 13.319 21.2519 14.5565 20.7557 15.7122C20.2596 16.868 19.5839 17.8734 18.7288 18.7286C17.8737 19.5837 16.8682 20.2593 15.7125 20.7555C14.5567 21.2516 13.3192 21.4997 12 21.4997Z" fill="#3A3A3A"/>
</g>
</svg>
