<svg width="20" height="20" viewBox="0 0 20 20" fill="none" xmlns="http://www.w3.org/2000/svg">
<mask id="mask0_10_3521" style="mask-type:alpha" maskUnits="userSpaceOnUse" x="0" y="0" width="20" height="20">
<rect width="20" height="20" fill="#3A3A3A"/>
</mask>
<g mask="url(#mask0_10_3521)">
<path d="M15 16.25H13.125C12.9479 16.25 12.7995 16.1901 12.6797 16.0703C12.5599 15.9504 12.5 15.8019 12.5 15.6248C12.5 15.4476 12.5599 15.2992 12.6797 15.1795C12.7995 15.0599 12.9479 15.0001 13.125 15.0001H15V13.125C15 12.948 15.0599 12.7995 15.1798 12.6798C15.2996 12.56 15.4481 12.5001 15.6253 12.5001C15.8024 12.5001 15.9508 12.56 16.0705 12.6798C16.1902 12.7995 16.25 12.948 16.25 13.125V15.0001H18.125C18.3021 15.0001 18.4505 15.06 18.5703 15.1798C18.6901 15.2997 18.75 15.4482 18.75 15.6253C18.75 15.8025 18.6901 15.9509 18.5703 16.0705C18.4505 16.1902 18.3021 16.25 18.125 16.25H16.25V18.125C16.25 18.3021 16.1901 18.4506 16.0702 18.5704C15.9504 18.6901 15.8019 18.75 15.6247 18.75C15.4476 18.75 15.2991 18.6901 15.1795 18.5704C15.0598 18.4506 15 18.3021 15 18.125V16.25ZM2.93274 16.4584C2.71932 16.4584 2.54044 16.3862 2.39608 16.2418C2.25171 16.0975 2.17953 15.9186 2.17953 15.7052V11.4584H1.92151C1.68433 11.4584 1.48909 11.3657 1.33578 11.1803C1.18248 10.995 1.1336 10.7837 1.18916 10.5465L2.02249 6.63629C2.06045 6.46287 2.14904 6.32043 2.28826 6.20896C2.42748 6.09748 2.58569 6.04175 2.76287 6.04175H13.4872C13.6644 6.04175 13.8226 6.09748 13.9618 6.20896C14.101 6.32043 14.1896 6.46287 14.2276 6.63629L15.0609 10.5465C15.1165 10.7837 15.0676 10.995 14.9143 11.1803C14.761 11.3657 14.5657 11.4584 14.3285 11.4584H14.0705V13.4456C14.0705 13.6227 14.0106 13.7711 13.8908 13.8909C13.7709 14.0107 13.6224 14.0706 13.4453 14.0706C13.2681 14.0706 13.1197 14.0107 13 13.8909C12.8804 13.7711 12.8206 13.6227 12.8206 13.4456V11.4584H9.26285V15.7052C9.26285 15.9186 9.19067 16.0975 9.0463 16.2418C8.90193 16.3862 8.72304 16.4584 8.50964 16.4584H2.93274ZM3.42951 15.2084H8.01287V11.4584H3.42951V15.2084ZM2.77247 4.79171C2.59539 4.79171 2.44695 4.73179 2.32716 4.61196C2.20738 4.49211 2.14749 4.34361 2.14749 4.16646C2.14749 3.98929 2.20738 3.84088 2.32716 3.72123C2.44695 3.60158 2.59539 3.54175 2.77247 3.54175H13.4776C13.6547 3.54175 13.8031 3.60167 13.9229 3.7215C14.0427 3.84135 14.1026 3.98985 14.1026 4.167C14.1026 4.34417 14.0427 4.49257 13.9229 4.61223C13.8031 4.73188 13.6547 4.79171 13.4776 4.79171H2.77247ZM2.52566 10.2084H13.7244L13.0882 7.29171H3.16189L2.52566 10.2084Z" fill="#3A3A3A"/>
</g>
</svg>
