<svg width="20" height="20" viewBox="0 0 20 20" fill="none" xmlns="http://www.w3.org/2000/svg">
<mask id="mask0_10_3509" style="mask-type:alpha" maskUnits="userSpaceOnUse" x="0" y="0" width="20" height="20">
<rect width="20" height="20" fill="#D9D9D9"/>
</mask>
<g mask="url(#mask0_10_3509)">
<path d="M12.0051 17.079C11.4003 17.079 10.8855 16.8673 10.4608 16.4438C10.0361 16.0204 9.82379 15.5063 9.82379 14.9014C9.82379 14.2965 10.0355 13.7817 10.4589 13.3571C10.8823 12.9324 11.3965 12.72 12.0014 12.72C12.6063 12.72 13.121 12.9318 13.5457 13.3552C13.9704 13.7786 14.1827 14.2927 14.1827 14.8976C14.1827 15.5025 13.971 16.0173 13.5476 16.442C13.1242 16.8666 12.61 17.079 12.0051 17.079ZM13.7501 11.2456C12.5845 11.2456 11.5986 10.8426 10.7925 10.0365C9.98646 9.23042 9.58342 8.24458 9.58342 7.079C9.58342 5.91342 9.98646 4.92758 10.7925 4.12148C11.5986 3.3154 12.5845 2.91235 13.7501 2.91235C14.9156 2.91235 15.9015 3.3154 16.7076 4.12148C17.5137 4.92758 17.9167 5.91342 17.9167 7.079C17.9167 8.24458 17.5137 9.23042 16.7076 10.0365C15.9015 10.8426 14.9156 11.2456 13.7501 11.2456ZM5.92956 14.6751C5.10103 14.6751 4.39177 14.3801 3.80177 13.7901C3.21175 13.2001 2.91675 12.4908 2.91675 11.6623C2.91675 10.8338 3.21175 10.1246 3.80177 9.53454C4.39177 8.94454 5.10103 8.64954 5.92956 8.64954C6.75807 8.64954 7.46734 8.94454 8.05735 9.53454C8.64735 10.1246 8.94235 10.8338 8.94235 11.6623C8.94235 12.4908 8.64735 13.2001 8.05735 13.7901C7.46734 14.3801 6.75807 14.6751 5.92956 14.6751Z" fill="#2D2D2D"/>
</g>
</svg>
