<svg width="20" height="20" viewBox="0 0 20 20" fill="none" xmlns="http://www.w3.org/2000/svg">
<mask id="mask0_10_3497" style="mask-type:alpha" maskUnits="userSpaceOnUse" x="0" y="0" width="20" height="20">
<rect width="20" height="20" fill="#D9D9D9"/>
</mask>
<g mask="url(#mask0_10_3497)">
<path d="M3.75 15.8332V8.46145C3.75 8.22294 3.80335 7.99698 3.91006 7.78358C4.01677 7.57017 4.16427 7.39443 4.35256 7.25635L9.09615 3.68264C9.35938 3.48178 9.66023 3.38135 9.99869 3.38135C10.3371 3.38135 10.6389 3.48178 10.9038 3.68264L15.6474 7.25635C15.8357 7.39443 15.9832 7.57017 16.0899 7.78358C16.1966 7.99698 16.25 8.22294 16.25 8.46145V15.8332C16.25 16.174 16.1268 16.4676 15.8806 16.7138C15.6343 16.9601 15.3408 17.0832 15 17.0832H12.3397C12.1263 17.0832 11.9474 17.011 11.8031 16.8667C11.6587 16.7223 11.5865 16.5434 11.5865 16.33V12.2595C11.5865 12.0461 11.5143 11.8672 11.37 11.7228C11.2256 11.5785 11.0467 11.5063 10.8333 11.5063H9.16665C8.95324 11.5063 8.77436 11.5785 8.63 11.7228C8.48563 11.8672 8.41344 12.0461 8.41344 12.2595V16.33C8.41344 16.5434 8.34126 16.7223 8.1969 16.8667C8.05253 17.011 7.87365 17.0832 7.66025 17.0832H4.99998C4.65917 17.0832 4.36565 16.9601 4.1194 16.7138C3.87313 16.4676 3.75 16.174 3.75 15.8332Z" fill="#2D2D2D"/>
</g>
</svg>
