<svg width="20" height="20" viewBox="0 0 20 20" fill="none" xmlns="http://www.w3.org/2000/svg">
<mask id="mask0_10_3533" style="mask-type:alpha" maskUnits="userSpaceOnUse" x="0" y="0" width="20" height="20">
<rect width="20" height="20" fill="#D9D9D9"/>
</mask>
<g mask="url(#mask0_10_3533)">
<path d="M9.99975 17.2915C9.82258 17.2915 9.67417 17.2317 9.55452 17.1119C9.43487 16.9921 9.37504 16.8436 9.37504 16.6666V13.3332C9.37504 13.1561 9.43496 13.0077 9.55479 12.8879C9.67464 12.7681 9.82314 12.7083 10.0003 12.7083C10.1775 12.7083 10.3259 12.7681 10.4455 12.8879C10.5652 13.0077 10.625 13.1561 10.625 13.3332V14.3749H16.6667C16.8438 14.3749 16.9922 14.4348 17.112 14.5547C17.2318 14.6745 17.2917 14.823 17.2917 15.0002C17.2917 15.1773 17.2318 15.3257 17.112 15.4454C16.9922 15.5651 16.8438 15.6249 16.6667 15.6249H10.625V16.6666C10.625 16.8436 10.5651 16.9921 10.4452 17.1119C10.3254 17.2317 10.1769 17.2915 9.99975 17.2915ZM3.33335 15.6249C3.15627 15.6249 3.00784 15.565 2.88806 15.4451C2.76827 15.3253 2.70837 15.1768 2.70837 14.9996C2.70837 14.8225 2.76827 14.6741 2.88806 14.5544C3.00784 14.4347 3.15627 14.3749 3.33335 14.3749H6.66669C6.84377 14.3749 6.9922 14.4348 7.11198 14.5547C7.23177 14.6745 7.29167 14.823 7.29167 15.0002C7.29167 15.1773 7.23177 15.3257 7.11198 15.4454C6.9922 15.5651 6.84377 15.6249 6.66669 15.6249H3.33335ZM6.66642 12.2915C6.48925 12.2915 6.34084 12.2316 6.22119 12.1119C6.10153 11.9921 6.04171 11.8436 6.04171 11.6666V10.6249H3.33335C3.15627 10.6249 3.00784 10.565 2.88806 10.4451C2.76827 10.3253 2.70837 10.1768 2.70837 9.99963C2.70837 9.82246 2.76827 9.67405 2.88806 9.5544C3.00784 9.43475 3.15627 9.37492 3.33335 9.37492H6.04171V8.33323C6.04171 8.15615 6.10162 8.00771 6.22146 7.88792C6.3413 7.76814 6.4898 7.70825 6.66696 7.70825C6.84412 7.70825 6.99253 7.76814 7.11219 7.88792C7.23184 8.00771 7.29167 8.15615 7.29167 8.33323V11.6666C7.29167 11.8436 7.23175 11.9921 7.11192 12.1119C6.99207 12.2316 6.84357 12.2915 6.66642 12.2915ZM10 10.6249C9.82294 10.6249 9.67451 10.565 9.55473 10.4451C9.43494 10.3253 9.37504 10.1768 9.37504 9.99963C9.37504 9.82246 9.43494 9.67405 9.55473 9.5544C9.67451 9.43475 9.82294 9.37492 10 9.37492H16.6667C16.8438 9.37492 16.9922 9.43484 17.112 9.55467C17.2318 9.67452 17.2917 9.82302 17.2917 10.0002C17.2917 10.1773 17.2318 10.3257 17.112 10.4454C16.9922 10.5651 16.8438 10.6249 16.6667 10.6249H10ZM13.3331 7.29155C13.1559 7.29155 13.0075 7.23166 12.8879 7.11188C12.7682 6.99209 12.7084 6.84365 12.7084 6.66657V3.33323C12.7084 3.15615 12.7683 3.00771 12.8881 2.88792C13.008 2.76814 13.1565 2.70825 13.3336 2.70825C13.5108 2.70825 13.6592 2.76814 13.7789 2.88792C13.8985 3.00771 13.9583 3.15615 13.9583 3.33323V4.37492H16.6667C16.8438 4.37492 16.9922 4.43484 17.112 4.55467C17.2318 4.67452 17.2917 4.82302 17.2917 5.00017C17.2917 5.17734 17.2318 5.32575 17.112 5.4454C16.9922 5.56505 16.8438 5.62488 16.6667 5.62488H13.9583V6.66657C13.9583 6.84365 13.8984 6.99209 13.7786 7.11188C13.6587 7.23166 13.5102 7.29155 13.3331 7.29155ZM3.33335 5.62488C3.15627 5.62488 3.00784 5.56496 2.88806 5.44513C2.76827 5.32528 2.70837 5.17678 2.70837 4.99963C2.70837 4.82246 2.76827 4.67405 2.88806 4.5544C3.00784 4.43475 3.15627 4.37492 3.33335 4.37492H10C10.1771 4.37492 10.3255 4.43484 10.4453 4.55467C10.5651 4.67452 10.625 4.82302 10.625 5.00017C10.625 5.17734 10.5651 5.32575 10.4453 5.4454C10.3255 5.56505 10.1771 5.62488 10 5.62488H3.33335Z" fill="#2D2D2D"/>
</g>
</svg>
