<svg width="20" height="20" viewBox="0 0 20 20" fill="none" xmlns="http://www.w3.org/2000/svg">
<mask id="mask0_10_3529" style="mask-type:alpha" maskUnits="userSpaceOnUse" x="0" y="0" width="20" height="20">
<rect width="20" height="20" fill="#D9D9D9"/>
</mask>
<g mask="url(#mask0_10_3529)">
<path d="M14.1666 14.1666C14.5139 14.1666 14.809 14.0451 15.0521 13.8021C15.2951 13.559 15.4166 13.2639 15.4166 12.9166C15.4166 12.5694 15.2951 12.2743 15.0521 12.0312C14.809 11.7882 14.5139 11.6666 14.1666 11.6666C13.8194 11.6666 13.5243 11.7882 13.2812 12.0312C13.0382 12.2743 12.9166 12.5694 12.9166 12.9166C12.9166 13.2639 13.0382 13.559 13.2812 13.8021C13.5243 14.0451 13.8194 14.1666 14.1666 14.1666ZM14.1666 16.6666C14.6025 16.6666 14.9997 16.5673 15.3581 16.3686C15.7166 16.1698 16.0096 15.9038 16.2372 15.5705C15.9263 15.3846 15.5972 15.243 15.25 15.1458C14.9028 15.0486 14.5416 15 14.1666 15C13.7916 15 13.4305 15.0486 13.0833 15.1458C12.7361 15.243 12.407 15.3846 12.0961 15.5705C12.3237 15.9038 12.6167 16.1698 12.9751 16.3686C13.3336 16.5673 13.7307 16.6666 14.1666 16.6666ZM14.1666 17.9166C13.1261 17.9166 12.2409 17.5518 11.5112 16.8221C10.7815 16.0924 10.4167 15.2072 10.4167 14.1666C10.4167 13.1261 10.7815 12.2409 11.5112 11.5112C12.2409 10.7815 13.1261 10.4167 14.1666 10.4167C15.2072 10.4167 16.0924 10.7815 16.8221 11.5112C17.5518 12.2409 17.9166 13.1261 17.9166 14.1666C17.9166 15.2072 17.5518 16.0924 16.8221 16.8221C16.0924 17.5518 15.2072 17.9166 14.1666 17.9166ZM9.99998 17.9006C8.19763 17.4091 6.70538 16.3482 5.52323 14.7179C4.34108 13.0876 3.75 11.2649 3.75 9.24997V5.49678C3.75 5.18162 3.84135 4.89716 4.02404 4.64343C4.20674 4.38968 4.44178 4.20565 4.72917 4.09134L9.47275 2.32051C9.65117 2.25641 9.82691 2.22437 9.99998 2.22437C10.173 2.22437 10.3488 2.25641 10.5272 2.32051L15.2708 4.09134C15.5582 4.20565 15.7932 4.38968 15.9759 4.64343C16.1586 4.89716 16.25 5.18162 16.25 5.49678V9.17628C15.9529 9.03846 15.6161 8.93296 15.2395 8.85978C14.8629 8.78659 14.5053 8.74999 14.1666 8.74999C12.6677 8.74999 11.3902 9.27803 10.3341 10.3341C9.27804 11.3902 8.75 12.6677 8.75 14.1666C8.75 14.8835 8.87981 15.5518 9.13942 16.1714C9.39903 16.7911 9.74945 17.3445 10.1907 17.8317C10.1554 17.8424 10.1237 17.8538 10.0953 17.8661C10.067 17.8784 10.0352 17.8899 9.99998 17.9006Z" fill="#2D2D2D"/>
</g>
</svg>
