<svg width="20" height="20" viewBox="0 0 20 20" fill="none" xmlns="http://www.w3.org/2000/svg">
<mask id="mask0_10_3515" style="mask-type:alpha" maskUnits="userSpaceOnUse" x="0" y="0" width="20" height="20">
<rect width="20" height="20" fill="#D9D9D9"/>
</mask>
<g mask="url(#mask0_10_3515)">
<path d="M11.5609 17.1683C11.5876 17.179 11.6117 17.1843 11.633 17.1843C11.6544 17.1843 11.6784 17.179 11.7051 17.1683L16.6074 15.6506C16.5647 15.4615 16.4765 15.3165 16.3429 15.2155C16.2093 15.1146 16.0582 15.0641 15.8895 15.0641H11.8084C11.4447 15.0641 11.1357 15.0502 10.8814 15.0224C10.6272 14.9946 10.3659 14.9337 10.0978 14.8397L8.79009 14.4118C8.622 14.3584 8.50119 14.2516 8.42765 14.0913C8.35411 13.9311 8.34404 13.7679 8.39746 13.6018C8.45088 13.4356 8.55424 13.3138 8.70754 13.2364C8.86086 13.1589 9.02192 13.1469 9.19071 13.2003L10.2741 13.5801C10.5262 13.6603 10.8083 13.7172 11.1202 13.7508C11.4322 13.7845 11.8365 13.8056 12.3332 13.8141H12.5561C12.5561 13.6079 12.5096 13.43 12.4167 13.2805C12.3237 13.1309 12.2014 13.0299 12.0497 12.9776L7.21477 11.2019C7.19875 11.1966 7.18405 11.1926 7.17069 11.1899C7.15734 11.1872 7.14265 11.1859 7.12663 11.1859H5.58494V15.4808L11.5609 17.1683ZM11.2356 18.3926L5.58494 16.7724C5.48986 17.1175 5.29648 17.3945 5.00481 17.6033C4.71315 17.8122 4.40439 17.9166 4.07854 17.9166H2.92473C2.51047 17.9166 2.15583 17.7691 1.86083 17.4741C1.56583 17.1791 1.41833 16.8245 1.41833 16.4102V11.4423C1.41833 11.0281 1.56583 10.6734 1.86083 10.3784C2.15583 10.0834 2.51047 9.93594 2.92473 9.93594H7.1174C7.20474 9.93594 7.29329 9.94555 7.38302 9.96477C7.47277 9.98401 7.55611 10.0064 7.63302 10.0321L12.4888 11.8205C12.867 11.9605 13.1811 12.2081 13.4311 12.5633C13.6811 12.9186 13.8061 13.3355 13.8061 13.8141H15.8895C16.4877 13.8141 16.9752 14.0072 17.3518 14.3934C17.7284 14.7796 17.9167 15.281 17.9167 15.8974C17.9167 16.1335 17.8542 16.3237 17.7292 16.4679C17.6042 16.6122 17.4151 16.7265 17.1619 16.8109L12.1058 18.3798C11.969 18.4246 11.8253 18.4484 11.6747 18.4511C11.5241 18.4538 11.3777 18.4343 11.2356 18.3926ZM2.66831 16.4102C2.66831 16.485 2.69235 16.5464 2.74042 16.5945C2.7885 16.6426 2.84994 16.6666 2.92473 16.6666H4.07854C4.15334 16.6666 4.21477 16.6466 4.26286 16.6065C4.31094 16.5665 4.33498 16.501 4.33498 16.4102V11.1859H2.92473C2.84994 11.1859 2.7885 11.2099 2.74042 11.258C2.69235 11.3061 2.66831 11.3675 2.66831 11.4423V16.4102ZM11.4568 2.07373C11.6085 2.07373 11.7575 2.0967 11.9039 2.14265C12.0502 2.18858 12.1918 2.25908 12.3285 2.35417L16.4471 5.29327C16.648 5.43002 16.8042 5.60711 16.9159 5.82452C17.0275 6.04194 17.0833 6.27351 17.0833 6.51923V11.3622C17.0833 11.5393 17.0234 11.6877 16.9036 11.8075C16.7837 11.9273 16.6352 11.9872 16.4581 11.9872C16.2809 11.9872 16.1325 11.9273 16.0128 11.8075C15.8932 11.6877 15.8334 11.5393 15.8334 11.3622V6.4984C15.8334 6.45566 15.824 6.41559 15.8053 6.37819C15.7866 6.3408 15.7586 6.30875 15.7212 6.28204L11.6026 3.40544C11.5598 3.37338 11.5118 3.35736 11.4583 3.35736C11.4049 3.35736 11.3568 3.37338 11.3141 3.40544L7.19552 6.28204C7.15812 6.30875 7.13007 6.3408 7.11138 6.37819C7.09268 6.41559 7.08333 6.45566 7.08333 6.4984V7.48402C7.08333 7.66109 7.02341 7.80952 6.90356 7.92931C6.78372 8.04911 6.63522 8.109 6.45806 8.109C6.2809 8.109 6.13249 8.04911 6.01284 7.92931C5.89318 7.80952 5.83336 7.66109 5.83336 7.48402V6.51923C5.83336 6.27351 5.88918 6.04194 6.00081 5.82452C6.11247 5.60711 6.26872 5.43002 6.46956 5.29327L10.5881 2.35417C10.7249 2.25908 10.8659 2.18858 11.0113 2.14265C11.1566 2.0967 11.3051 2.07373 11.4568 2.07373ZM10.625 6.85096C10.7254 6.85096 10.8133 6.8133 10.8886 6.73798C10.9639 6.66266 11.0016 6.57479 11.0016 6.47436C11.0016 6.37393 10.9639 6.28605 10.8886 6.21073C10.8133 6.13541 10.7254 6.09775 10.625 6.09775C10.5246 6.09775 10.4367 6.13541 10.3614 6.21073C10.2861 6.28605 10.2484 6.37393 10.2484 6.47436C10.2484 6.57479 10.2861 6.66266 10.3614 6.73798C10.4367 6.8133 10.5246 6.85096 10.625 6.85096ZM12.2917 6.85096C12.3921 6.85096 12.48 6.8133 12.5553 6.73798C12.6306 6.66266 12.6683 6.57479 12.6683 6.47436C12.6683 6.37393 12.6306 6.28605 12.5553 6.21073C12.48 6.13541 12.3921 6.09775 12.2917 6.09775C12.1913 6.09775 12.1034 6.13541 12.0281 6.21073C11.9527 6.28605 11.9151 6.37393 11.9151 6.47436C11.9151 6.57479 11.9527 6.66266 12.0281 6.73798C12.1034 6.8133 12.1913 6.85096 12.2917 6.85096ZM10.625 8.51763C10.7254 8.51763 10.8133 8.47997 10.8886 8.40465C10.9639 8.32933 11.0016 8.24145 11.0016 8.14102C11.0016 8.04059 10.9639 7.95272 10.8886 7.8774C10.8133 7.80208 10.7254 7.76442 10.625 7.76442C10.5246 7.76442 10.4367 7.80208 10.3614 7.8774C10.2861 7.95272 10.2484 8.04059 10.2484 8.14102C10.2484 8.24145 10.2861 8.32933 10.3614 8.40465C10.4367 8.47997 10.5246 8.51763 10.625 8.51763ZM12.2917 8.51763C12.3921 8.51763 12.48 8.47997 12.5553 8.40465C12.6306 8.32933 12.6683 8.24145 12.6683 8.14102C12.6683 8.04059 12.6306 7.95272 12.5553 7.8774C12.48 7.80208 12.3921 7.76442 12.2917 7.76442C12.1913 7.76442 12.1034 7.80208 12.0281 7.8774C11.9527 7.95272 11.9151 8.04059 11.9151 8.14102C11.9151 8.24145 11.9527 8.32933 12.0281 8.40465C12.1034 8.47997 12.1913 8.51763 12.2917 8.51763Z" fill="#1C1B1F"/>
</g>
</svg>
