<svg width="4" height="16" viewBox="0 0 4 16" fill="none" xmlns="http://www.w3.org/2000/svg">
<path d="M1.99997 15.2691C1.58749 15.2691 1.23438 15.1222 0.940625 14.8285C0.646875 14.5347 0.5 14.1816 0.5 13.7691C0.5 13.3566 0.646875 13.0035 0.940625 12.7098C1.23438 12.416 1.58749 12.2691 1.99997 12.2691C2.41246 12.2691 2.76558 12.416 3.05933 12.7098C3.35308 13.0035 3.49995 13.3566 3.49995 13.7691C3.49995 14.1816 3.35308 14.5347 3.05933 14.8285C2.76558 15.1222 2.41246 15.2691 1.99997 15.2691ZM1.99997 9.49986C1.58749 9.49986 1.23438 9.35299 0.940625 9.05924C0.646875 8.76549 0.5 8.41237 0.5 7.99989C0.5 7.58741 0.646875 7.23429 0.940625 6.94054C1.23438 6.64679 1.58749 6.49991 1.99997 6.49991C2.41246 6.49991 2.76558 6.64679 3.05933 6.94054C3.35308 7.23429 3.49995 7.58741 3.49995 7.99989C3.49995 8.41237 3.35308 8.76549 3.05933 9.05924C2.76558 9.35299 2.41246 9.49986 1.99997 9.49986ZM1.99997 3.73064C1.58749 3.73064 1.23438 3.58376 0.940625 3.29001C0.646875 2.99628 0.5 2.64316 0.5 2.23066C0.5 1.81818 0.646875 1.46506 0.940625 1.17131C1.23438 0.87758 1.58749 0.730713 1.99997 0.730713C2.41246 0.730713 2.76558 0.87758 3.05933 1.17131C3.35308 1.46506 3.49995 1.81818 3.49995 2.23066C3.49995 2.64316 3.35308 2.99628 3.05933 3.29001C2.76558 3.58376 2.41246 3.73064 1.99997 3.73064Z" fill="#5D5D5D"/>
</svg>
