<svg width="18" height="18" viewBox="0 0 18 18" fill="none" xmlns="http://www.w3.org/2000/svg">
<path d="M9.00002 17.3334C7.84724 17.3334 6.76391 17.1147 5.75002 16.6772C4.73613 16.2397 3.85419 15.6459 3.10419 14.8959C2.35419 14.1459 1.76044 13.264 1.32294 12.2501C0.885437 11.2362 0.666687 10.1529 0.666687 9.00008C0.666687 7.8473 0.885437 6.76397 1.32294 5.75008C1.76044 4.73619 2.35419 3.85425 3.10419 3.10425C3.85419 2.35425 4.73613 1.7605 5.75002 1.323C6.76391 0.885498 7.84724 0.666748 9.00002 0.666748C9.23613 0.666748 9.43405 0.746609 9.59377 0.906331C9.75349 1.06605 9.83335 1.26397 9.83335 1.50008V7.56258C10.0834 7.71536 10.2847 7.91328 10.4375 8.15633C10.5903 8.39939 10.6667 8.68064 10.6667 9.00008C10.6667 9.45841 10.5035 9.85078 10.1771 10.1772C9.85071 10.5036 9.45835 10.6667 9.00002 10.6667C8.54169 10.6667 8.14933 10.5036 7.82294 10.1772C7.49655 9.85078 7.33335 9.45841 7.33335 9.00008C7.33335 8.68064 7.40974 8.39592 7.56252 8.14592C7.7153 7.89592 7.91669 7.70147 8.16669 7.56258V5.77091C7.44446 5.96536 6.84724 6.35772 6.37502 6.948C5.9028 7.53828 5.66669 8.2223 5.66669 9.00008C5.66669 9.91675 5.99308 10.7015 6.64585 11.3542C7.29863 12.007 8.08335 12.3334 9.00002 12.3334C9.91669 12.3334 10.7014 12.007 11.3542 11.3542C12.007 10.7015 12.3334 9.91675 12.3334 9.00008C12.3334 8.63897 12.2813 8.30564 12.1771 8.00008C12.0729 7.69453 11.9306 7.40286 11.75 7.12508C11.6111 6.93064 11.5486 6.71536 11.5625 6.47925C11.5764 6.24314 11.6597 6.04869 11.8125 5.89591C11.9792 5.72925 12.1771 5.64591 12.4063 5.64591C12.6354 5.64591 12.8195 5.74314 12.9584 5.93758C13.2778 6.36814 13.5313 6.84036 13.7188 7.35425C13.9063 7.86814 14 8.41675 14 9.00008C14 10.389 13.5139 11.5695 12.5417 12.5417C11.5695 13.514 10.3889 14.0001 9.00002 14.0001C7.61113 14.0001 6.43058 13.514 5.45835 12.5417C4.48613 11.5695 4.00002 10.389 4.00002 9.00008C4.00002 7.75008 4.39585 6.66328 5.18752 5.73966C5.97919 4.81605 6.97224 4.25703 8.16669 4.06258V2.37508C6.51391 2.58341 5.12849 3.31258 4.01044 4.56258C2.89238 5.81258 2.33335 7.29175 2.33335 9.00008C2.33335 10.8612 2.97919 12.4376 4.27085 13.7292C5.56252 15.0209 7.13891 15.6667 9.00002 15.6667C10.8611 15.6667 12.4375 15.0209 13.7292 13.7292C15.0209 12.4376 15.6667 10.8612 15.6667 9.00008C15.6667 8.19453 15.5347 7.43411 15.2709 6.71883C15.007 6.00355 14.632 5.35425 14.1459 4.77091C13.9931 4.59036 13.9167 4.38203 13.9167 4.14591C13.9167 3.9098 14 3.70841 14.1667 3.54175C14.3334 3.37508 14.5313 3.29522 14.7604 3.30216C14.9896 3.30911 15.1806 3.40286 15.3334 3.58341C15.9584 4.31953 16.4479 5.14591 16.8021 6.06258C17.1563 6.97925 17.3334 7.95841 17.3334 9.00008C17.3334 10.1529 17.1146 11.2362 16.6771 12.2501C16.2396 13.264 15.6459 14.1459 14.8959 14.8959C14.1459 15.6459 13.2639 16.2397 12.25 16.6772C11.2361 17.1147 10.1528 17.3334 9.00002 17.3334Z" fill="#41558D"/>
</svg>
