<svg width="10" height="14" viewBox="0 0 10 14" fill="none" xmlns="http://www.w3.org/2000/svg">
<path d="M3.00014 9.0003H0.933476C0.666809 9.0003 0.469587 8.88086 0.341809 8.64197C0.214031 8.40308 0.22792 8.17252 0.383476 7.9503L5.36681 0.783635C5.47792 0.62808 5.62236 0.519747 5.80014 0.458636C5.97792 0.397524 6.16125 0.400302 6.35014 0.466969C6.53903 0.533635 6.67792 0.650302 6.76681 0.816969C6.8557 0.983635 6.88903 1.16141 6.86681 1.3503L6.33348 5.66697H8.91681C9.2057 5.66697 9.40848 5.79475 9.52514 6.0503C9.64181 6.30586 9.6057 6.54475 9.41681 6.76697L3.93348 13.3336C3.81125 13.4781 3.66125 13.5725 3.48348 13.617C3.3057 13.6614 3.13348 13.6447 2.96681 13.567C2.80014 13.4892 2.66959 13.3697 2.57514 13.2086C2.4807 13.0475 2.44459 12.8725 2.46681 12.6836L3.00014 9.0003Z" fill="#F6F6F6"/>
</svg>
