<svg width="14" height="18" viewBox="0 0 14 18" fill="none" xmlns="http://www.w3.org/2000/svg">
<path d="M6.99992 17.3334C6.63881 17.3334 6.31242 17.2466 6.02075 17.073C5.72909 16.8994 5.49992 16.6667 5.33325 16.3751C4.87492 16.3751 4.48256 16.2119 4.15617 15.8855C3.82978 15.5591 3.66659 15.1667 3.66659 14.7084V11.7501C2.84714 11.2084 2.19089 10.4931 1.69784 9.60425C1.20478 8.71536 0.958252 7.75008 0.958252 6.70841C0.958252 5.02786 1.54506 3.60078 2.71867 2.42716C3.89228 1.25355 5.31936 0.666748 6.99992 0.666748C8.68047 0.666748 10.1076 1.25355 11.2812 2.42716C12.4548 3.60078 13.0416 5.02786 13.0416 6.70841C13.0416 7.77786 12.7951 8.75008 12.302 9.62508C11.8089 10.5001 11.1527 11.2084 10.3333 11.7501V14.7084C10.3333 15.1667 10.1701 15.5591 9.84367 15.8855C9.51728 16.2119 9.12492 16.3751 8.66658 16.3751C8.49992 16.6667 8.27075 16.8994 7.97909 17.073C7.68742 17.2466 7.36103 17.3334 6.99992 17.3334ZM5.33325 14.7084H8.66658V13.9584H5.33325V14.7084ZM5.33325 13.1251H8.66658V12.3334H5.33325V13.1251ZM7.62492 10.6667V8.41675L9.02075 7.02091C9.14575 6.89591 9.20825 6.75008 9.20825 6.58341C9.20825 6.41675 9.14575 6.27092 9.02075 6.14592C8.89575 6.02092 8.74992 5.95841 8.58325 5.95841C8.41659 5.95841 8.27075 6.02092 8.14575 6.14592L6.99992 7.29175L5.85408 6.14592C5.72908 6.02092 5.58325 5.95841 5.41658 5.95841C5.24992 5.95841 5.10409 6.02092 4.97909 6.14592C4.85409 6.27092 4.79159 6.41675 4.79159 6.58341C4.79159 6.75008 4.85409 6.89591 4.97909 7.02091L6.37492 8.41675V10.6667H7.62492Z" fill="#D99E16"/>
</svg>
