<svg xmlns="http://www.w3.org/2000/svg" viewBox="0 0 48 48"><defs><style>.cls-1{fill:#bcc0ff;}.cls-2{fill:#ffdddf;}.cls-3{fill:#98d7de;}.cls-4{fill:#a499d6;}.cls-5{fill:#f89bae;}.cls-6{fill:#fabbc3;}.cls-7{fill:#e0a5a5;}.cls-8{fill:#c18f90;}.cls-9{fill:#81c8d9;}.cls-10{fill:#7d649c;}.cls-11{fill:#f280a0;}</style></defs><title>29-couple</title><g id="_29-couple" data-name="29-couple"><path class="cls-1" d="M40,28.25v6.22A20.957,20.957,0,0,1,35,35a20.957,20.957,0,0,1-5-.53V28.25A8.239,8.239,0,0,1,32,28c0,1.11,1.34,2,3,2s3-.89,3-2A8.239,8.239,0,0,1,40,28.25Z"/><path class="cls-2" d="M44,31c0,1.73-1.59,2.87-4,3.47V28.25a8.121,8.121,0,0,1,3.28,1.74,7.235,7.235,0,0,1,.86.89Z"/><path class="cls-2" d="M30,28.25v6.22c-2.41-.6-4-1.74-4-3.47l-.14-.12a6.646,6.646,0,0,1,.87-.89A7.9,7.9,0,0,1,30,28.25Z"/><path class="cls-3" d="M13,31c2.18,0,3.96-1.31,4-2.94A8,8,0,0,1,24,36V47H2V36a8,8,0,0,1,7-7.94C9.04,29.69,10.82,31,13,31Z"/><path class="cls-4" d="M40,34.47c2.41-.6,4-1.74,4-3.47l.14-.12A7.957,7.957,0,0,1,46,36V47H24V36a7.957,7.957,0,0,1,1.86-5.12L26,31c0,1.73,1.59,2.87,4,3.47A20.957,20.957,0,0,0,35,35,20.957,20.957,0,0,0,40,34.47Z"/><path class="cls-5" d="M30,28.25a7.9,7.9,0,0,0-3.27,1.74A3.8,3.8,0,0,1,24,28V13c0-.25,0-.5.01-.74.01-.11.02-.22.02-.33L25,12c0,4.93,2.94,10.41,7,12.31V28A8.239,8.239,0,0,0,30,28.25Z"/><path class="cls-6" d="M38,24.31c4.06-1.9,7-7.38,7-12.31-1.11,0-2-2-3-4a47.606,47.606,0,0,0-9.07.86C28.03,9.83,25,11.34,25,12l-.97-.07C24.47,4.64,29.43,1,35.5,1,41.86,1,47,5,47,13V28a4.274,4.274,0,0,1-3.72,1.99A8.121,8.121,0,0,0,40,28.25,8.239,8.239,0,0,0,38,28Z"/><path class="cls-7" d="M3,11v1c0,.33.01.66.04,1H3a1.681,1.681,0,0,0-.99.33C2.25,4.8,7.07,1,13,1c5.22,0,9.5,4.39,9.96,10C17.47,10.99,17,9.2,17,7,17,9.21,8.53,11,3,11Z"/><path class="cls-6" d="M1.59,13.73a1.981,1.981,0,0,1,.42-.4A1.681,1.681,0,0,1,3,13h.04a15.278,15.278,0,0,0,1.3,5H3a2.3,2.3,0,0,1-2-2.5A2.793,2.793,0,0,1,1.59,13.73Z"/><path class="cls-2" d="M23,12.24c-.1,4.86-3.01,10.2-7,12.07a6.867,6.867,0,0,1-6,0A12.409,12.409,0,0,1,4.34,18a15.278,15.278,0,0,1-1.3-5c-.03-.34-.04-.67-.04-1V11c5.53,0,14-1.79,14-4,0,2.2.47,3.99,5.96,4,.03.33.04.66.04,1Z"/><path class="cls-2" d="M16,28a8.262,8.262,0,0,1,1,.06C16.96,29.69,15.18,31,13,31s-3.96-1.31-4-2.94A8.262,8.262,0,0,1,10,28V24.31a6.867,6.867,0,0,0,6,0Z"/><path class="cls-2" d="M38,24.31V28c0,1.11-1.34,2-3,2s-3-.89-3-2V24.31a6.867,6.867,0,0,0,6,0Z"/><path class="cls-2" d="M45,12c0,4.93-2.94,10.41-7,12.31a6.867,6.867,0,0,1-6,0c-4.06-1.9-7-7.38-7-12.31,0-.66,3.03-2.17,7.93-3.14A47.606,47.606,0,0,1,42,8C43,10,43.89,12,45,12Z"/><path class="cls-6" d="M13,25a7.085,7.085,0,0,1-3-.69v2a6.867,6.867,0,0,0,6,0v-2A7.085,7.085,0,0,1,13,25Z"/><path class="cls-6" d="M35,25a7.085,7.085,0,0,1-3-.69v2a6.867,6.867,0,0,0,6,0v-2A7.085,7.085,0,0,1,35,25Z"/><path class="cls-6" d="M6.34,18a15.278,15.278,0,0,1-1.3-5c-.03-.34-.04-.67-.04-1V10.929C4.307,10.974,3.633,11,3,11v1c0,.33.01.66.04,1a15.278,15.278,0,0,0,1.3,5A12.409,12.409,0,0,0,10,24.31,7.085,7.085,0,0,0,13,25a6.636,6.636,0,0,0,1-.085,7.385,7.385,0,0,1-2-.605A12.409,12.409,0,0,1,6.34,18Z"/><path class="cls-8" d="M14.362,1.113A9.145,9.145,0,0,0,13,1C7.07,1,2.25,4.8,2.01,13.33A1.681,1.681,0,0,1,3,13h.04c-.03-.34-.04-.67-.04-1V11c.7,0,1.454-.03,2.229-.085C6.135,4.8,9.779,1.7,14.362,1.113Z"/><path class="cls-9" d="M9.221,28.945A2.319,2.319,0,0,1,9,28.06,8,8,0,0,0,2,36V47H5V36A8,8,0,0,1,9.221,28.945Z"/><path class="cls-6" d="M27.021,10.594C25.721,11.157,25,11.679,25,12c0,4.93,2.94,10.41,7,12.31A7.085,7.085,0,0,0,35,25a6.636,6.636,0,0,0,1-.085,7.385,7.385,0,0,1-2-.605C30.1,22.484,27.239,15.511,27.021,10.594Z"/><path class="cls-5" d="M37,1.087A14.22,14.22,0,0,0,35.5,1C29.43,1,24.47,4.64,24.03,11.93L25,12c0-.334.778-.886,2.18-1.475A10.55,10.55,0,0,1,37,1.087Z"/><path class="cls-4" d="M32.121,28.535A1.392,1.392,0,0,1,32,28a8.239,8.239,0,0,0-2,.25v1.527A7.849,7.849,0,0,1,32.121,28.535Z"/><path class="cls-6" d="M27.44,33.4a8.03,8.03,0,0,1,1.42-2.52,6.646,6.646,0,0,1,.87-.89c.085-.076.181-.141.27-.213V28.25a7.9,7.9,0,0,0-3.27,1.74,6.646,6.646,0,0,0-.87.89L26,31A2.872,2.872,0,0,0,27.44,33.4Z"/><path class="cls-10" d="M27.44,33.4A2.872,2.872,0,0,1,26,31l-.14-.12A7.957,7.957,0,0,0,24,36V47h3V36A7.958,7.958,0,0,1,27.44,33.4Z"/><path class="cls-11" d="M24,27c.25,0,3-1,3-2.8,0-.8-.75-1.2-1.5-1.2A1.539,1.539,0,0,0,24,24a1.539,1.539,0,0,0-1.5-1c-.75,0-1.5.4-1.5,1.2C21,26,23.5,27,24,27Z"/></g></svg>