<svg width="20" height="20" viewBox="0 0 20 20" fill="none" xmlns="http://www.w3.org/2000/svg">
<mask id="mask0_10_4009" style="mask-type:alpha" maskUnits="userSpaceOnUse" x="0" y="0" width="20" height="20">
<rect width="20" height="20" fill="#D9D9D9"/>
</mask>
<g mask="url(#mask0_10_4009)">
<path d="M18.4792 8.77083C18.632 8.9375 18.7084 9.13542 18.7084 9.36458C18.7084 9.59375 18.632 9.79167 18.4792 9.95833L15.5209 12.8958C15.3681 13.0625 15.1737 13.1458 14.9375 13.1458C14.7014 13.1458 14.507 13.0625 14.3542 12.8958L13.1667 11.7292C13 11.5625 12.9167 11.3646 12.9167 11.1354C12.9167 10.9063 13 10.7083 13.1667 10.5417C13.3334 10.3889 13.5313 10.3125 13.7605 10.3125C13.9896 10.3125 14.1875 10.3889 14.3542 10.5417L14.9375 11.125L17.2917 8.77083C17.4584 8.61806 17.6563 8.54167 17.8855 8.54167C18.1146 8.54167 18.3125 8.61806 18.4792 8.77083ZM8.60421 17.0208L6.52087 15.125C5.52087 14.2222 4.66323 13.4167 3.94796 12.7083C3.23268 12 2.6424 11.3333 2.17712 10.7083C1.71185 10.0833 1.37157 9.47917 1.15629 8.89583C0.941013 8.3125 0.833374 7.70139 0.833374 7.0625C0.833374 5.75694 1.27087 4.67014 2.14587 3.80208C3.02087 2.93403 4.11115 2.5 5.41671 2.5C6.13893 2.5 6.82643 2.64931 7.47921 2.94792C8.13198 3.24653 8.69449 3.67361 9.16671 4.22917C9.63893 3.67361 10.2014 3.24653 10.8542 2.94792C11.507 2.64931 12.1945 2.5 12.9167 2.5C14.0973 2.5 15.0868 2.85764 15.8855 3.57292C16.6841 4.28819 17.1806 5.125 17.375 6.08333C17.0973 5.97222 16.8056 5.90278 16.5 5.875C16.1945 5.84722 15.882 5.83333 15.5625 5.83333C14.382 5.83333 13.2987 6.30903 12.3125 7.26042C11.3264 8.21181 10.8334 9.40278 10.8334 10.8333C10.8334 11.5 10.9792 12.1771 11.2709 12.8646C11.5625 13.5521 11.9723 14.1111 12.5 14.5417C12.2362 14.7778 11.8924 15.0799 11.4688 15.4479C11.0452 15.816 10.6806 16.1389 10.375 16.4167L9.70837 17.0208C9.5556 17.1597 9.37157 17.2292 9.15629 17.2292C8.94101 17.2292 8.75698 17.1597 8.60421 17.0208Z" fill="#5B8350"/>
</g>
</svg>
