<svg width="16" height="16" viewBox="0 0 16 16" fill="none" xmlns="http://www.w3.org/2000/svg">
<mask id="mask0_10_3765" style="mask-type:alpha" maskUnits="userSpaceOnUse" x="0" y="0" width="16" height="16">
<rect width="16" height="16" fill="#D9D9D9"/>
</mask>
<g mask="url(#mask0_10_3765)">
<path d="M7.33335 13.3354C7.14446 13.3354 6.98612 13.2715 6.85835 13.1437C6.73057 13.0159 6.66668 12.8576 6.66668 12.6687V8.6687L2.80001 3.73537C2.63335 3.51315 2.60835 3.27981 2.72501 3.03537C2.84168 2.79092 3.04446 2.6687 3.33335 2.6687H12.6667C12.9556 2.6687 13.1583 2.79092 13.275 3.03537C13.3917 3.27981 13.3667 3.51315 13.2 3.73537L9.33335 8.6687V12.6687C9.33335 12.8576 9.26946 13.0159 9.14168 13.1437C9.0139 13.2715 8.85557 13.3354 8.66668 13.3354H7.33335ZM8.00001 8.20203L11.3 4.00203H4.70001L8.00001 8.20203Z" fill="#41558D"/>
</g>
</svg>
