<svg width="15" height="14" viewBox="0 0 15 14" fill="none" xmlns="http://www.w3.org/2000/svg">
<path d="M7.50016 10.3333C7.68905 10.3333 7.84738 10.2694 7.97516 10.1416C8.10294 10.0138 8.16683 9.85547 8.16683 9.66658V6.99992C8.16683 6.81103 8.10294 6.6527 7.97516 6.52492C7.84738 6.39714 7.68905 6.33325 7.50016 6.33325C7.31127 6.33325 7.15294 6.39714 7.02516 6.52492C6.89738 6.6527 6.8335 6.81103 6.8335 6.99992V9.66658C6.8335 9.85547 6.89738 10.0138 7.02516 10.1416C7.15294 10.2694 7.31127 10.3333 7.50016 10.3333ZM7.50016 4.99992C7.68905 4.99992 7.84738 4.93603 7.97516 4.80825C8.10294 4.68047 8.16683 4.52214 8.16683 4.33325C8.16683 4.14436 8.10294 3.98603 7.97516 3.85825C7.84738 3.73047 7.68905 3.66658 7.50016 3.66658C7.31127 3.66658 7.15294 3.73047 7.02516 3.85825C6.89738 3.98603 6.8335 4.14436 6.8335 4.33325C6.8335 4.52214 6.89738 4.68047 7.02516 4.80825C7.15294 4.93603 7.31127 4.99992 7.50016 4.99992ZM7.50016 13.6666C6.57794 13.6666 5.71127 13.4916 4.90016 13.1416C4.08905 12.7916 3.3835 12.3166 2.7835 11.7166C2.1835 11.1166 1.7085 10.411 1.3585 9.59992C1.0085 8.78881 0.833496 7.92214 0.833496 6.99992C0.833496 6.0777 1.0085 5.21103 1.3585 4.39992C1.7085 3.58881 2.1835 2.88325 2.7835 2.28325C3.3835 1.68325 4.08905 1.20825 4.90016 0.858252C5.71127 0.508252 6.57794 0.333252 7.50016 0.333252C8.42238 0.333252 9.28905 0.508252 10.1002 0.858252C10.9113 1.20825 11.6168 1.68325 12.2168 2.28325C12.8168 2.88325 13.2918 3.58881 13.6418 4.39992C13.9918 5.21103 14.1668 6.0777 14.1668 6.99992C14.1668 7.92214 13.9918 8.78881 13.6418 9.59992C13.2918 10.411 12.8168 11.1166 12.2168 11.7166C11.6168 12.3166 10.9113 12.7916 10.1002 13.1416C9.28905 13.4916 8.42238 13.6666 7.50016 13.6666Z" fill="#575757"/>
</svg>
