<svg width="20" height="20" viewBox="0 0 20 20" fill="none" xmlns="http://www.w3.org/2000/svg">
<mask id="mask0_10_4217" style="mask-type:alpha" maskUnits="userSpaceOnUse" x="0" y="0" width="20" height="20">
<rect width="20" height="20" fill="#D9D9D9"/>
</mask>
<g mask="url(#mask0_10_4217)">
<path d="M8.93746 16.5417C7.42357 15.2083 6.1944 14.0868 5.24996 13.1771C4.30552 12.2674 3.56593 11.4688 3.03121 10.7812C2.49649 10.0938 2.13538 9.46528 1.94788 8.89583C1.76038 8.32639 1.66663 7.72222 1.66663 7.08333C1.66663 5.80556 2.11107 4.72222 2.99996 3.83333C3.88885 2.94444 4.97218 2.5 6.24996 2.5C6.87496 2.5 7.47913 2.61458 8.06246 2.84375C8.64579 3.07292 9.16663 3.40278 9.62496 3.83333L8.64579 7.27083C8.57635 7.54861 8.62149 7.79514 8.78121 8.01042C8.94093 8.22569 9.15968 8.33333 9.43746 8.33333H10.8333L10.2916 13.625C10.2777 13.7361 10.3229 13.7986 10.427 13.8125C10.5312 13.8264 10.5972 13.7847 10.625 13.6875L12.1666 8.58333C12.25 8.30556 12.2083 8.05556 12.0416 7.83333C11.875 7.61111 11.6527 7.5 11.375 7.5H9.99996L11.4791 3.08333C11.8263 2.88889 12.1909 2.74306 12.5729 2.64583C12.9548 2.54861 13.3472 2.5 13.75 2.5C15.0277 2.5 16.1111 2.94444 17 3.83333C17.8888 4.72222 18.3333 5.80556 18.3333 7.08333C18.3333 7.69444 18.2222 8.29861 18 8.89583C17.7777 9.49306 17.3923 10.1528 16.8437 10.875C16.2951 11.5972 15.559 12.4132 14.6354 13.3229C13.7118 14.2326 12.5416 15.3056 11.125 16.5417C10.9722 16.6806 10.7986 16.7847 10.6041 16.8542C10.4097 16.9236 10.2152 16.9583 10.0208 16.9583C9.82635 16.9583 9.63538 16.9236 9.44788 16.8542C9.26038 16.7847 9.09024 16.6806 8.93746 16.5417Z" fill="#E85D5D"/>
</g>
</svg>
