<svg width="20" height="20" viewBox="0 0 20 20" fill="none" xmlns="http://www.w3.org/2000/svg">
<mask id="mask0_10_4144" style="mask-type:alpha" maskUnits="userSpaceOnUse" x="0" y="0" width="20" height="20">
<rect width="20" height="20" fill="#D9D9D9"/>
</mask>
<g mask="url(#mask0_10_4144)">
<path d="M12.4999 11.6667V10H19.1666V11.6667H12.4999ZM9.16659 17.5L6.52075 15.125C5.52075 14.2222 4.66311 13.4167 3.94784 12.7083C3.23256 12 2.64228 11.3333 2.177 10.7083C1.71172 10.0833 1.37145 9.47917 1.15617 8.89583C0.940891 8.3125 0.833252 7.70139 0.833252 7.0625C0.833252 5.75694 1.27075 4.67014 2.14575 3.80208C3.02075 2.93403 4.11103 2.5 5.41659 2.5C6.13881 2.5 6.82631 2.64931 7.47909 2.94792C8.13186 3.24653 8.69436 3.67361 9.16659 4.22917C9.63881 3.67361 10.2013 3.24653 10.8541 2.94792C11.5069 2.64931 12.1944 2.5 12.9166 2.5C14.0971 2.5 15.0867 2.85764 15.8853 3.57292C16.6839 4.28819 17.1805 5.125 17.3749 6.08333C17.1249 5.98611 16.8749 5.91319 16.6249 5.86458C16.3749 5.81597 16.1319 5.79167 15.8958 5.79167C14.493 5.79167 13.2985 6.28125 12.3124 7.26042C11.3263 8.23958 10.8333 9.43056 10.8333 10.8333C10.8333 11.5556 10.9791 12.2396 11.2708 12.8854C11.5624 13.5312 11.9721 14.0833 12.4999 14.5417C12.236 14.7778 11.8923 15.0799 11.4687 15.4479C11.0451 15.816 10.6805 16.1389 10.3749 16.4167L9.16659 17.5Z" fill="#D99E16"/>
</g>
</svg>
